<svg xmlns="http://www.w3.org/2000/svg" viewBox="0 0 64 64" role="img" aria-labelledby="title">
  <title id="title">N4 French Community</title>
  <path d="M32 3.8C47.7 3.8 60.2 16.6 60 32.2 59.8 48 47.5 60.2 31.8 60.1 16.2 60 3.9 47.6 4 32 4.1 16.5 16.5 3.8 32 3.8Z" fill="#fffaf0" stroke="#173b5f" stroke-width="2.4"/>
  <path d="M31.7 7.1C45.6 7 56.9 18.2 56.8 32.1 56.7 45.9 45.6 56.9 31.8 56.8" fill="none" stroke="#173b5f" stroke-dasharray="1.2 2.8" stroke-linecap="round" stroke-width="1.2"/>
  <path d="M14.5 41V22.2L30 41V22.2M49.5 42V21.8L35.4 35.2H52.2" fill="none" stroke="#173b5f" stroke-linecap="round" stroke-linejoin="round" stroke-width="4.2"/>
  <path d="M44.8 49.1c-3.8-2.4-5.2-4.3-5.2-6.1 0-2.5 3.1-3.2 5.2-.5 2.1-2.7 5.2-2 5.2.5 0 1.8-1.4 3.7-5.2 6.1Z" fill="#b43d35"/>
</svg>
